<mxfile host="app.diagrams.net" modified="2024-04-13T17:41:05.917Z" agent="Mozilla/5.0 (Windows NT 10.0; Win64; x64) AppleWebKit/537.36 (KHTML, like Gecko) Chrome/122.0.0.0 Safari/537.36" etag="aqWEwFNUmR8d8Jrg8TaV" version="24.2.5" type="onedrive">
  <diagram id="R2lEEEUBdFMjLlhIrx00" name="Page-1">
    <mxGraphModel dx="2095" dy="566" grid="1" gridSize="10" guides="1" tooltips="1" connect="1" arrows="1" fold="1" page="1" pageScale="1" pageWidth="850" pageHeight="1100" math="0" shadow="0" extFonts="Permanent Marker^https://fonts.googleapis.com/css?family=Permanent+Marker">
      <root>
        <mxCell id="0" />
        <mxCell id="1" parent="0" />
        <mxCell id="hfd_dL3A9iqUe7PELF8y-1" value="&lt;div&gt;&lt;b&gt;&lt;i&gt;&lt;u&gt;Requirements&lt;/u&gt;&lt;/i&gt;&lt;/b&gt;&lt;/div&gt;&lt;div&gt;&lt;b&gt;&lt;i&gt;&lt;u&gt;&lt;br&gt;&lt;/u&gt;&lt;/i&gt;&lt;/b&gt;&lt;/div&gt;&lt;div&gt;Design and implement an application for a Health and Fitness Club Management System.&amp;nbsp;&lt;/div&gt;&lt;div&gt;This system will serve&amp;nbsp;&lt;span style=&quot;background-color: initial;&quot;&gt;as a comprehensive platform catering to the diverse needs of &lt;b&gt;club members&lt;/b&gt;, &lt;b&gt;trainers&lt;/b&gt;, and &lt;b&gt;administrative staff&lt;/b&gt;.&amp;nbsp;&lt;/span&gt;&lt;/div&gt;&lt;div&gt;&lt;span style=&quot;background-color: initial;&quot;&gt;&lt;br&gt;&lt;/span&gt;&lt;/div&gt;&lt;div&gt;&lt;span style=&quot;background-color: initial;&quot;&gt;Members should be able to &lt;u&gt;register and manage their profiles&lt;/u&gt;, establish &lt;b&gt;personal fitness goals&lt;/b&gt; (you can&amp;nbsp;&lt;/span&gt;&lt;span style=&quot;background-color: initial;&quot;&gt;determine suitable fitness goals such as weight and time, and members will set the values), and input &lt;b&gt;health&amp;nbsp;&lt;/b&gt;&lt;/span&gt;&lt;span style=&quot;background-color: initial;&quot;&gt;&lt;b&gt;metrics&lt;/b&gt;. They should have access to a personalized dashboard that &lt;u&gt;tracks &lt;b&gt;exercise routines&lt;/b&gt;, fitness achievements,&amp;nbsp;&lt;/u&gt;&lt;/span&gt;&lt;span style=&quot;background-color: initial;&quot;&gt;&lt;u&gt;and health statistics&lt;/u&gt;. Members can schedule, reschedule, or cancel&lt;b&gt; personal training sessions&lt;/b&gt; with certified&amp;nbsp;&lt;/span&gt;&lt;span style=&quot;background-color: initial;&quot;&gt;trainers. Additionally, they should be able to register for group fitness classes.&amp;nbsp;&lt;/span&gt;&lt;span style=&quot;background-color: initial;&quot;&gt;Trainers should have the ability to manage their schedules and view member profiles.&lt;/span&gt;&lt;/div&gt;&lt;div&gt;&lt;span style=&quot;background-color: initial;&quot;&gt;&lt;br&gt;&lt;/span&gt;&lt;/div&gt;&lt;div&gt;Administrative Staff should be equipped with features to manage room bookings, monitor fitness equipment&lt;/div&gt;&lt;div&gt;maintenance, update class schedules, oversee billing, and process payments for membership fees, personal&lt;/div&gt;&lt;div&gt;training sessions, and other services.&lt;/div&gt;&lt;div&gt;&lt;br&gt;&lt;/div&gt;&lt;div&gt;Functions to Implement:&lt;/div&gt;&lt;div&gt;Member Functions:&lt;/div&gt;&lt;div&gt;1. User Registration&lt;/div&gt;&lt;div&gt;2. Profile Management (Updating personal information, fitness goals, health metrics)&lt;/div&gt;&lt;div&gt;3. Dashboard Display (Displaying exercise routines, fitness achievements, health statistics)&lt;/div&gt;&lt;div&gt;4. Schedule Management (Scheduling personal training sessions or group fitness classes. The system&lt;/div&gt;&lt;div&gt;must ensure that the trainer is available)&lt;/div&gt;&lt;div&gt;Trainer Functions:&lt;/div&gt;&lt;div&gt;1. Schedule Management (Trainer can set the time for which they are available.)&lt;/div&gt;&lt;div&gt;2. Member Profile Viewing (Search by Memberâ€™s name)&lt;/div&gt;&lt;div&gt;Administrative Staff Functions:&lt;/div&gt;&lt;div&gt;1. Room Booking Management&lt;/div&gt;&lt;div&gt;2. Equipment Maintenance Monitoring&lt;/div&gt;&lt;div&gt;3. Class Schedule Updating&lt;/div&gt;&lt;div&gt;4. Billing and Payment Processing (Your system should assume integration with a payment service&lt;/div&gt;&lt;div&gt;[Note: Do not actually integrate with a payment service&lt;/div&gt;" style="rounded=0;whiteSpace=wrap;html=1;align=left;" parent="1" vertex="1">
          <mxGeometry x="-830" y="20" width="640" height="580" as="geometry" />
        </mxCell>
        <mxCell id="hfd_dL3A9iqUe7PELF8y-2" value="member" style="rounded=0;whiteSpace=wrap;html=1;" parent="1" vertex="1">
          <mxGeometry x="180" y="200" width="120" height="60" as="geometry" />
        </mxCell>
        <mxCell id="hfd_dL3A9iqUe7PELF8y-5" value="member_id" style="ellipse;whiteSpace=wrap;html=1;align=center;fontStyle=4;" parent="1" vertex="1">
          <mxGeometry x="50" y="135" width="100" height="40" as="geometry" />
        </mxCell>
        <mxCell id="hfd_dL3A9iqUe7PELF8y-6" value="name" style="ellipse;whiteSpace=wrap;html=1;align=center;" parent="1" vertex="1">
          <mxGeometry x="50" y="190" width="100" height="40" as="geometry" />
        </mxCell>
        <mxCell id="hfd_dL3A9iqUe7PELF8y-7" value="email" style="ellipse;whiteSpace=wrap;html=1;align=center;" parent="1" vertex="1">
          <mxGeometry x="50" y="250" width="100" height="40" as="geometry" />
        </mxCell>
        <mxCell id="hfd_dL3A9iqUe7PELF8y-8" value="registration_date" style="ellipse;whiteSpace=wrap;html=1;align=center;" parent="1" vertex="1">
          <mxGeometry x="45" y="350" width="110" height="50" as="geometry" />
        </mxCell>
        <mxCell id="hfd_dL3A9iqUe7PELF8y-13" value="" style="endArrow=none;html=1;rounded=0;entryX=0.25;entryY=0;entryDx=0;entryDy=0;exitX=1;exitY=1;exitDx=0;exitDy=0;" parent="1" source="hfd_dL3A9iqUe7PELF8y-5" target="hfd_dL3A9iqUe7PELF8y-2" edge="1">
          <mxGeometry relative="1" as="geometry">
            <mxPoint x="50" y="250" as="sourcePoint" />
            <mxPoint x="210" y="250" as="targetPoint" />
          </mxGeometry>
        </mxCell>
        <mxCell id="hfd_dL3A9iqUe7PELF8y-14" value="" style="endArrow=none;html=1;rounded=0;entryX=0;entryY=0.25;entryDx=0;entryDy=0;exitX=1;exitY=0.5;exitDx=0;exitDy=0;" parent="1" source="hfd_dL3A9iqUe7PELF8y-6" target="hfd_dL3A9iqUe7PELF8y-2" edge="1">
          <mxGeometry relative="1" as="geometry">
            <mxPoint x="145" y="179" as="sourcePoint" />
            <mxPoint x="220" y="210" as="targetPoint" />
          </mxGeometry>
        </mxCell>
        <mxCell id="hfd_dL3A9iqUe7PELF8y-15" value="password" style="ellipse;whiteSpace=wrap;html=1;align=center;" parent="1" vertex="1">
          <mxGeometry x="50" y="300" width="100" height="40" as="geometry" />
        </mxCell>
        <mxCell id="hfd_dL3A9iqUe7PELF8y-16" value="" style="endArrow=none;html=1;rounded=0;entryX=0;entryY=0.5;entryDx=0;entryDy=0;exitX=1;exitY=0.5;exitDx=0;exitDy=0;" parent="1" source="hfd_dL3A9iqUe7PELF8y-7" target="hfd_dL3A9iqUe7PELF8y-2" edge="1">
          <mxGeometry relative="1" as="geometry">
            <mxPoint x="160" y="220" as="sourcePoint" />
            <mxPoint x="190" y="225" as="targetPoint" />
          </mxGeometry>
        </mxCell>
        <mxCell id="hfd_dL3A9iqUe7PELF8y-17" value="" style="endArrow=none;html=1;rounded=0;entryX=0;entryY=1;entryDx=0;entryDy=0;exitX=1;exitY=0.5;exitDx=0;exitDy=0;" parent="1" source="hfd_dL3A9iqUe7PELF8y-15" target="hfd_dL3A9iqUe7PELF8y-2" edge="1">
          <mxGeometry relative="1" as="geometry">
            <mxPoint x="160" y="280" as="sourcePoint" />
            <mxPoint x="190" y="240" as="targetPoint" />
          </mxGeometry>
        </mxCell>
        <mxCell id="hfd_dL3A9iqUe7PELF8y-18" value="" style="endArrow=none;html=1;rounded=0;entryX=0.25;entryY=1;entryDx=0;entryDy=0;exitX=1;exitY=0.5;exitDx=0;exitDy=0;" parent="1" source="hfd_dL3A9iqUe7PELF8y-8" target="hfd_dL3A9iqUe7PELF8y-2" edge="1">
          <mxGeometry relative="1" as="geometry">
            <mxPoint x="160" y="330" as="sourcePoint" />
            <mxPoint x="190" y="270" as="targetPoint" />
          </mxGeometry>
        </mxCell>
        <mxCell id="hfd_dL3A9iqUe7PELF8y-19" value="trainer" style="rounded=0;whiteSpace=wrap;html=1;" parent="1" vertex="1">
          <mxGeometry x="1110" y="970" width="120" height="60" as="geometry" />
        </mxCell>
        <mxCell id="hfd_dL3A9iqUe7PELF8y-20" value="trainer_id" style="ellipse;whiteSpace=wrap;html=1;align=center;fontStyle=4;" parent="1" vertex="1">
          <mxGeometry x="945" y="617.5" width="100" height="40" as="geometry" />
        </mxCell>
        <mxCell id="hfd_dL3A9iqUe7PELF8y-21" value="name" style="ellipse;whiteSpace=wrap;html=1;align=center;" parent="1" vertex="1">
          <mxGeometry x="945" y="672.5" width="100" height="40" as="geometry" />
        </mxCell>
        <mxCell id="hfd_dL3A9iqUe7PELF8y-22" value="email" style="ellipse;whiteSpace=wrap;html=1;align=center;" parent="1" vertex="1">
          <mxGeometry x="945" y="732.5" width="100" height="40" as="geometry" />
        </mxCell>
        <mxCell id="hfd_dL3A9iqUe7PELF8y-23" value="registration_date" style="ellipse;whiteSpace=wrap;html=1;align=center;" parent="1" vertex="1">
          <mxGeometry x="940" y="832.5" width="110" height="50" as="geometry" />
        </mxCell>
        <mxCell id="hfd_dL3A9iqUe7PELF8y-24" value="" style="endArrow=none;html=1;rounded=0;exitX=1;exitY=1;exitDx=0;exitDy=0;" parent="1" source="hfd_dL3A9iqUe7PELF8y-20" edge="1">
          <mxGeometry relative="1" as="geometry">
            <mxPoint x="965" y="990" as="sourcePoint" />
            <mxPoint x="1140" y="970" as="targetPoint" />
          </mxGeometry>
        </mxCell>
        <mxCell id="hfd_dL3A9iqUe7PELF8y-25" value="" style="endArrow=none;html=1;rounded=0;entryX=0.25;entryY=0;entryDx=0;entryDy=0;exitX=1;exitY=0.5;exitDx=0;exitDy=0;" parent="1" source="hfd_dL3A9iqUe7PELF8y-21" target="hfd_dL3A9iqUe7PELF8y-19" edge="1">
          <mxGeometry relative="1" as="geometry">
            <mxPoint x="1060" y="919" as="sourcePoint" />
            <mxPoint x="1135" y="950" as="targetPoint" />
          </mxGeometry>
        </mxCell>
        <mxCell id="hfd_dL3A9iqUe7PELF8y-26" value="password" style="ellipse;whiteSpace=wrap;html=1;align=center;" parent="1" vertex="1">
          <mxGeometry x="945" y="782.5" width="100" height="40" as="geometry" />
        </mxCell>
        <mxCell id="hfd_dL3A9iqUe7PELF8y-27" value="" style="endArrow=none;html=1;rounded=0;entryX=0.25;entryY=0;entryDx=0;entryDy=0;exitX=1;exitY=0.5;exitDx=0;exitDy=0;" parent="1" source="hfd_dL3A9iqUe7PELF8y-22" target="hfd_dL3A9iqUe7PELF8y-19" edge="1">
          <mxGeometry relative="1" as="geometry">
            <mxPoint x="1075" y="960" as="sourcePoint" />
            <mxPoint x="1105" y="965" as="targetPoint" />
          </mxGeometry>
        </mxCell>
        <mxCell id="hfd_dL3A9iqUe7PELF8y-28" value="" style="endArrow=none;html=1;rounded=0;entryX=0.25;entryY=0;entryDx=0;entryDy=0;exitX=1;exitY=0.5;exitDx=0;exitDy=0;" parent="1" source="hfd_dL3A9iqUe7PELF8y-26" target="hfd_dL3A9iqUe7PELF8y-19" edge="1">
          <mxGeometry relative="1" as="geometry">
            <mxPoint x="1075" y="1020" as="sourcePoint" />
            <mxPoint x="1105" y="980" as="targetPoint" />
          </mxGeometry>
        </mxCell>
        <mxCell id="hfd_dL3A9iqUe7PELF8y-29" value="" style="endArrow=none;html=1;rounded=0;entryX=0.25;entryY=0;entryDx=0;entryDy=0;exitX=1;exitY=0.5;exitDx=0;exitDy=0;" parent="1" source="hfd_dL3A9iqUe7PELF8y-23" target="hfd_dL3A9iqUe7PELF8y-19" edge="1">
          <mxGeometry relative="1" as="geometry">
            <mxPoint x="1075" y="1070" as="sourcePoint" />
            <mxPoint x="1105" y="1010" as="targetPoint" />
          </mxGeometry>
        </mxCell>
        <mxCell id="hfd_dL3A9iqUe7PELF8y-41" value="admin" style="rounded=0;whiteSpace=wrap;html=1;" parent="1" vertex="1">
          <mxGeometry x="310" y="1565" width="120" height="60" as="geometry" />
        </mxCell>
        <mxCell id="hfd_dL3A9iqUe7PELF8y-42" value="admin_id" style="ellipse;whiteSpace=wrap;html=1;align=center;fontStyle=4;" parent="1" vertex="1">
          <mxGeometry x="165" y="1470" width="100" height="40" as="geometry" />
        </mxCell>
        <mxCell id="hfd_dL3A9iqUe7PELF8y-43" value="name" style="ellipse;whiteSpace=wrap;html=1;align=center;" parent="1" vertex="1">
          <mxGeometry x="165" y="1525" width="100" height="40" as="geometry" />
        </mxCell>
        <mxCell id="hfd_dL3A9iqUe7PELF8y-44" value="email" style="ellipse;whiteSpace=wrap;html=1;align=center;" parent="1" vertex="1">
          <mxGeometry x="165" y="1585" width="100" height="40" as="geometry" />
        </mxCell>
        <mxCell id="hfd_dL3A9iqUe7PELF8y-45" value="registration_date" style="ellipse;whiteSpace=wrap;html=1;align=center;" parent="1" vertex="1">
          <mxGeometry x="160" y="1685" width="110" height="50" as="geometry" />
        </mxCell>
        <mxCell id="hfd_dL3A9iqUe7PELF8y-46" value="" style="endArrow=none;html=1;rounded=0;entryX=0.25;entryY=0;entryDx=0;entryDy=0;exitX=1;exitY=1;exitDx=0;exitDy=0;" parent="1" source="hfd_dL3A9iqUe7PELF8y-42" target="hfd_dL3A9iqUe7PELF8y-41" edge="1">
          <mxGeometry relative="1" as="geometry">
            <mxPoint x="165" y="1585" as="sourcePoint" />
            <mxPoint x="325" y="1585" as="targetPoint" />
          </mxGeometry>
        </mxCell>
        <mxCell id="hfd_dL3A9iqUe7PELF8y-47" value="" style="endArrow=none;html=1;rounded=0;entryX=0;entryY=0.25;entryDx=0;entryDy=0;exitX=1;exitY=0.5;exitDx=0;exitDy=0;" parent="1" source="hfd_dL3A9iqUe7PELF8y-43" target="hfd_dL3A9iqUe7PELF8y-41" edge="1">
          <mxGeometry relative="1" as="geometry">
            <mxPoint x="260" y="1514" as="sourcePoint" />
            <mxPoint x="335" y="1545" as="targetPoint" />
          </mxGeometry>
        </mxCell>
        <mxCell id="hfd_dL3A9iqUe7PELF8y-48" value="password" style="ellipse;whiteSpace=wrap;html=1;align=center;" parent="1" vertex="1">
          <mxGeometry x="165" y="1635" width="100" height="40" as="geometry" />
        </mxCell>
        <mxCell id="hfd_dL3A9iqUe7PELF8y-49" value="" style="endArrow=none;html=1;rounded=0;entryX=0;entryY=0.5;entryDx=0;entryDy=0;exitX=1;exitY=0.5;exitDx=0;exitDy=0;" parent="1" source="hfd_dL3A9iqUe7PELF8y-44" target="hfd_dL3A9iqUe7PELF8y-41" edge="1">
          <mxGeometry relative="1" as="geometry">
            <mxPoint x="275" y="1555" as="sourcePoint" />
            <mxPoint x="305" y="1560" as="targetPoint" />
          </mxGeometry>
        </mxCell>
        <mxCell id="hfd_dL3A9iqUe7PELF8y-50" value="" style="endArrow=none;html=1;rounded=0;entryX=0;entryY=1;entryDx=0;entryDy=0;exitX=1;exitY=0.5;exitDx=0;exitDy=0;" parent="1" source="hfd_dL3A9iqUe7PELF8y-48" target="hfd_dL3A9iqUe7PELF8y-41" edge="1">
          <mxGeometry relative="1" as="geometry">
            <mxPoint x="275" y="1615" as="sourcePoint" />
            <mxPoint x="305" y="1575" as="targetPoint" />
          </mxGeometry>
        </mxCell>
        <mxCell id="hfd_dL3A9iqUe7PELF8y-51" value="" style="endArrow=none;html=1;rounded=0;entryX=0.25;entryY=1;entryDx=0;entryDy=0;exitX=1;exitY=0.5;exitDx=0;exitDy=0;" parent="1" source="hfd_dL3A9iqUe7PELF8y-45" target="hfd_dL3A9iqUe7PELF8y-41" edge="1">
          <mxGeometry relative="1" as="geometry">
            <mxPoint x="275" y="1665" as="sourcePoint" />
            <mxPoint x="305" y="1605" as="targetPoint" />
          </mxGeometry>
        </mxCell>
        <mxCell id="hfd_dL3A9iqUe7PELF8y-52" value="fitness_goal" style="rounded=0;whiteSpace=wrap;html=1;" parent="1" vertex="1">
          <mxGeometry x="590" y="100" width="120" height="60" as="geometry" />
        </mxCell>
        <mxCell id="hfd_dL3A9iqUe7PELF8y-54" value="fitness_goal_id" style="ellipse;whiteSpace=wrap;html=1;align=center;fontStyle=4;" parent="1" vertex="1">
          <mxGeometry x="730" y="50" width="100" height="40" as="geometry" />
        </mxCell>
        <mxCell id="hfd_dL3A9iqUe7PELF8y-56" value="name" style="ellipse;whiteSpace=wrap;html=1;align=center;" parent="1" vertex="1">
          <mxGeometry x="730" y="100" width="100" height="40" as="geometry" />
        </mxCell>
        <mxCell id="hfd_dL3A9iqUe7PELF8y-57" value="description" style="ellipse;whiteSpace=wrap;html=1;align=center;" parent="1" vertex="1">
          <mxGeometry x="730" y="150" width="100" height="40" as="geometry" />
        </mxCell>
        <mxCell id="hfd_dL3A9iqUe7PELF8y-58" value="" style="endArrow=none;html=1;rounded=0;entryX=0;entryY=0.5;entryDx=0;entryDy=0;exitX=1;exitY=0.25;exitDx=0;exitDy=0;" parent="1" source="hfd_dL3A9iqUe7PELF8y-52" target="hfd_dL3A9iqUe7PELF8y-54" edge="1">
          <mxGeometry relative="1" as="geometry">
            <mxPoint x="160" y="280" as="sourcePoint" />
            <mxPoint x="190" y="240" as="targetPoint" />
          </mxGeometry>
        </mxCell>
        <mxCell id="hfd_dL3A9iqUe7PELF8y-59" value="" style="endArrow=none;html=1;rounded=0;entryX=0;entryY=0.5;entryDx=0;entryDy=0;exitX=1;exitY=0.5;exitDx=0;exitDy=0;" parent="1" source="hfd_dL3A9iqUe7PELF8y-52" target="hfd_dL3A9iqUe7PELF8y-56" edge="1">
          <mxGeometry relative="1" as="geometry">
            <mxPoint x="720" y="125" as="sourcePoint" />
            <mxPoint x="740" y="80" as="targetPoint" />
          </mxGeometry>
        </mxCell>
        <mxCell id="hfd_dL3A9iqUe7PELF8y-61" value="" style="endArrow=none;html=1;rounded=0;entryX=0;entryY=0.5;entryDx=0;entryDy=0;exitX=1;exitY=0.75;exitDx=0;exitDy=0;" parent="1" source="hfd_dL3A9iqUe7PELF8y-52" target="hfd_dL3A9iqUe7PELF8y-57" edge="1">
          <mxGeometry relative="1" as="geometry">
            <mxPoint x="720" y="140" as="sourcePoint" />
            <mxPoint x="740" y="130" as="targetPoint" />
          </mxGeometry>
        </mxCell>
        <mxCell id="hfd_dL3A9iqUe7PELF8y-62" value="health_metric" style="rounded=0;whiteSpace=wrap;html=1;" parent="1" vertex="1">
          <mxGeometry x="590" y="280" width="120" height="60" as="geometry" />
        </mxCell>
        <mxCell id="hfd_dL3A9iqUe7PELF8y-63" value="health_metric_id" style="ellipse;whiteSpace=wrap;html=1;align=center;fontStyle=4;" parent="1" vertex="1">
          <mxGeometry x="730" y="230" width="100" height="40" as="geometry" />
        </mxCell>
        <mxCell id="hfd_dL3A9iqUe7PELF8y-64" value="name" style="ellipse;whiteSpace=wrap;html=1;align=center;" parent="1" vertex="1">
          <mxGeometry x="730" y="280" width="100" height="40" as="geometry" />
        </mxCell>
        <mxCell id="hfd_dL3A9iqUe7PELF8y-65" value="description" style="ellipse;whiteSpace=wrap;html=1;align=center;" parent="1" vertex="1">
          <mxGeometry x="730" y="330" width="100" height="40" as="geometry" />
        </mxCell>
        <mxCell id="hfd_dL3A9iqUe7PELF8y-66" value="" style="endArrow=none;html=1;rounded=0;entryX=0;entryY=0.5;entryDx=0;entryDy=0;exitX=1;exitY=0.25;exitDx=0;exitDy=0;" parent="1" source="hfd_dL3A9iqUe7PELF8y-62" target="hfd_dL3A9iqUe7PELF8y-63" edge="1">
          <mxGeometry relative="1" as="geometry">
            <mxPoint x="160" y="460" as="sourcePoint" />
            <mxPoint x="190" y="420" as="targetPoint" />
          </mxGeometry>
        </mxCell>
        <mxCell id="hfd_dL3A9iqUe7PELF8y-67" value="" style="endArrow=none;html=1;rounded=0;entryX=0;entryY=0.5;entryDx=0;entryDy=0;exitX=1;exitY=0.5;exitDx=0;exitDy=0;" parent="1" source="hfd_dL3A9iqUe7PELF8y-62" target="hfd_dL3A9iqUe7PELF8y-64" edge="1">
          <mxGeometry relative="1" as="geometry">
            <mxPoint x="720" y="305" as="sourcePoint" />
            <mxPoint x="740" y="260" as="targetPoint" />
          </mxGeometry>
        </mxCell>
        <mxCell id="hfd_dL3A9iqUe7PELF8y-68" value="" style="endArrow=none;html=1;rounded=0;entryX=0;entryY=0.5;entryDx=0;entryDy=0;exitX=1;exitY=0.75;exitDx=0;exitDy=0;" parent="1" source="hfd_dL3A9iqUe7PELF8y-62" target="hfd_dL3A9iqUe7PELF8y-65" edge="1">
          <mxGeometry relative="1" as="geometry">
            <mxPoint x="720" y="320" as="sourcePoint" />
            <mxPoint x="740" y="310" as="targetPoint" />
          </mxGeometry>
        </mxCell>
        <mxCell id="hfd_dL3A9iqUe7PELF8y-77" value="member_routine" style="rounded=0;whiteSpace=wrap;html=1;" parent="1" vertex="1">
          <mxGeometry x="578" y="505" width="120" height="60" as="geometry" />
        </mxCell>
        <mxCell id="hfd_dL3A9iqUe7PELF8y-78" value="member_id (fk)" style="ellipse;whiteSpace=wrap;html=1;align=center;fontStyle=4;" parent="1" vertex="1">
          <mxGeometry x="718" y="460" width="100" height="40" as="geometry" />
        </mxCell>
        <mxCell id="hfd_dL3A9iqUe7PELF8y-79" value="&lt;u&gt;name&lt;/u&gt;" style="ellipse;whiteSpace=wrap;html=1;align=center;" parent="1" vertex="1">
          <mxGeometry x="718" y="505" width="100" height="40" as="geometry" />
        </mxCell>
        <mxCell id="hfd_dL3A9iqUe7PELF8y-80" value="description" style="ellipse;whiteSpace=wrap;html=1;align=center;" parent="1" vertex="1">
          <mxGeometry x="718" y="555" width="100" height="40" as="geometry" />
        </mxCell>
        <mxCell id="hfd_dL3A9iqUe7PELF8y-81" value="" style="endArrow=none;html=1;rounded=0;entryX=0;entryY=0.5;entryDx=0;entryDy=0;exitX=1;exitY=0.25;exitDx=0;exitDy=0;" parent="1" source="hfd_dL3A9iqUe7PELF8y-77" target="hfd_dL3A9iqUe7PELF8y-78" edge="1">
          <mxGeometry relative="1" as="geometry">
            <mxPoint x="160" y="630" as="sourcePoint" />
            <mxPoint x="190" y="590" as="targetPoint" />
          </mxGeometry>
        </mxCell>
        <mxCell id="hfd_dL3A9iqUe7PELF8y-82" value="" style="endArrow=none;html=1;rounded=0;entryX=0;entryY=0.5;entryDx=0;entryDy=0;exitX=1;exitY=0.5;exitDx=0;exitDy=0;" parent="1" source="hfd_dL3A9iqUe7PELF8y-77" target="hfd_dL3A9iqUe7PELF8y-79" edge="1">
          <mxGeometry relative="1" as="geometry">
            <mxPoint x="708" y="530" as="sourcePoint" />
            <mxPoint x="728" y="485" as="targetPoint" />
          </mxGeometry>
        </mxCell>
        <mxCell id="hfd_dL3A9iqUe7PELF8y-83" value="" style="endArrow=none;html=1;rounded=0;entryX=0;entryY=0.5;entryDx=0;entryDy=0;exitX=1;exitY=0.75;exitDx=0;exitDy=0;" parent="1" source="hfd_dL3A9iqUe7PELF8y-77" target="hfd_dL3A9iqUe7PELF8y-80" edge="1">
          <mxGeometry relative="1" as="geometry">
            <mxPoint x="708" y="545" as="sourcePoint" />
            <mxPoint x="728" y="535" as="targetPoint" />
          </mxGeometry>
        </mxCell>
        <mxCell id="hfd_dL3A9iqUe7PELF8y-84" value="establishes" style="shape=rhombus;perimeter=rhombusPerimeter;whiteSpace=wrap;html=1;align=center;" parent="1" vertex="1">
          <mxGeometry x="365" y="150" width="120" height="60" as="geometry" />
        </mxCell>
        <mxCell id="hfd_dL3A9iqUe7PELF8y-90" value="current_value" style="ellipse;whiteSpace=wrap;html=1;align=center;" parent="1" vertex="1">
          <mxGeometry x="270" y="70" width="100" height="40" as="geometry" />
        </mxCell>
        <mxCell id="hfd_dL3A9iqUe7PELF8y-91" value="goal_value" style="ellipse;whiteSpace=wrap;html=1;align=center;" parent="1" vertex="1">
          <mxGeometry x="350" y="40" width="100" height="40" as="geometry" />
        </mxCell>
        <mxCell id="hfd_dL3A9iqUe7PELF8y-92" value="date" style="ellipse;whiteSpace=wrap;html=1;align=center;" parent="1" vertex="1">
          <mxGeometry x="425" y="70" width="100" height="40" as="geometry" />
        </mxCell>
        <mxCell id="hfd_dL3A9iqUe7PELF8y-93" value="" style="endArrow=none;html=1;rounded=0;exitX=0.5;exitY=1;exitDx=0;exitDy=0;entryX=0;entryY=0;entryDx=0;entryDy=0;" parent="1" source="hfd_dL3A9iqUe7PELF8y-90" target="hfd_dL3A9iqUe7PELF8y-84" edge="1">
          <mxGeometry relative="1" as="geometry">
            <mxPoint x="360" y="200" as="sourcePoint" />
            <mxPoint x="520" y="200" as="targetPoint" />
          </mxGeometry>
        </mxCell>
        <mxCell id="hfd_dL3A9iqUe7PELF8y-94" value="" style="endArrow=none;html=1;rounded=0;exitX=0.5;exitY=1;exitDx=0;exitDy=0;entryX=0.5;entryY=0;entryDx=0;entryDy=0;" parent="1" source="hfd_dL3A9iqUe7PELF8y-91" target="hfd_dL3A9iqUe7PELF8y-84" edge="1">
          <mxGeometry relative="1" as="geometry">
            <mxPoint x="330" y="120" as="sourcePoint" />
            <mxPoint x="405" y="175" as="targetPoint" />
          </mxGeometry>
        </mxCell>
        <mxCell id="hfd_dL3A9iqUe7PELF8y-95" value="" style="endArrow=none;html=1;rounded=0;exitX=0.5;exitY=1;exitDx=0;exitDy=0;entryX=1;entryY=0;entryDx=0;entryDy=0;" parent="1" source="hfd_dL3A9iqUe7PELF8y-92" target="hfd_dL3A9iqUe7PELF8y-84" edge="1">
          <mxGeometry relative="1" as="geometry">
            <mxPoint x="410" y="90" as="sourcePoint" />
            <mxPoint x="435" y="160" as="targetPoint" />
          </mxGeometry>
        </mxCell>
        <mxCell id="hfd_dL3A9iqUe7PELF8y-101" value="inputs" style="shape=rhombus;perimeter=rhombusPerimeter;whiteSpace=wrap;html=1;align=center;" parent="1" vertex="1">
          <mxGeometry x="392" y="340" width="120" height="60" as="geometry" />
        </mxCell>
        <mxCell id="hfd_dL3A9iqUe7PELF8y-110" value="" style="endArrow=none;html=1;rounded=0;entryX=0;entryY=0.5;entryDx=0;entryDy=0;exitX=1;exitY=0.5;exitDx=0;exitDy=0;" parent="1" source="hfd_dL3A9iqUe7PELF8y-101" target="hfd_dL3A9iqUe7PELF8y-62" edge="1">
          <mxGeometry relative="1" as="geometry">
            <mxPoint x="500" y="400" as="sourcePoint" />
            <mxPoint x="605" y="350" as="targetPoint" />
          </mxGeometry>
        </mxCell>
        <mxCell id="hfd_dL3A9iqUe7PELF8y-111" value="N" style="resizable=0;html=1;whiteSpace=wrap;align=right;verticalAlign=bottom;" parent="hfd_dL3A9iqUe7PELF8y-110" connectable="0" vertex="1">
          <mxGeometry x="1" relative="1" as="geometry" />
        </mxCell>
        <mxCell id="hfd_dL3A9iqUe7PELF8y-121" value="has" style="shape=rhombus;perimeter=rhombusPerimeter;whiteSpace=wrap;html=1;align=center;" parent="1" vertex="1">
          <mxGeometry x="380" y="505" width="120" height="60" as="geometry" />
        </mxCell>
        <mxCell id="hfd_dL3A9iqUe7PELF8y-124" value="" style="endArrow=none;html=1;rounded=0;entryX=0;entryY=0.5;entryDx=0;entryDy=0;exitX=1;exitY=0.5;exitDx=0;exitDy=0;" parent="1" source="hfd_dL3A9iqUe7PELF8y-121" target="hfd_dL3A9iqUe7PELF8y-77" edge="1">
          <mxGeometry relative="1" as="geometry">
            <mxPoint x="488" y="525" as="sourcePoint" />
            <mxPoint x="566" y="465" as="targetPoint" />
          </mxGeometry>
        </mxCell>
        <mxCell id="hfd_dL3A9iqUe7PELF8y-125" value="N" style="resizable=0;html=1;whiteSpace=wrap;align=right;verticalAlign=bottom;" parent="hfd_dL3A9iqUe7PELF8y-124" connectable="0" vertex="1">
          <mxGeometry x="1" relative="1" as="geometry" />
        </mxCell>
        <mxCell id="hfd_dL3A9iqUe7PELF8y-134" value="training_session" style="rounded=0;whiteSpace=wrap;html=1;" parent="1" vertex="1">
          <mxGeometry x="470" y="770" width="175" height="60" as="geometry" />
        </mxCell>
        <mxCell id="hfd_dL3A9iqUe7PELF8y-135" value="member_id (FK)" style="ellipse;whiteSpace=wrap;html=1;align=center;fontStyle=4;" parent="1" vertex="1">
          <mxGeometry x="701" y="670" width="100" height="40" as="geometry" />
        </mxCell>
        <mxCell id="hfd_dL3A9iqUe7PELF8y-136" value="trainer_id (FK)" style="ellipse;whiteSpace=wrap;html=1;align=center;fontStyle=4;" parent="1" vertex="1">
          <mxGeometry x="701" y="730" width="100" height="40" as="geometry" />
        </mxCell>
        <mxCell id="hfd_dL3A9iqUe7PELF8y-137" value="date" style="ellipse;whiteSpace=wrap;html=1;align=center;fontStyle=4;" parent="1" vertex="1">
          <mxGeometry x="701" y="790" width="100" height="40" as="geometry" />
        </mxCell>
        <mxCell id="hfd_dL3A9iqUe7PELF8y-138" value="start_time" style="ellipse;whiteSpace=wrap;html=1;align=center;fontStyle=4;" parent="1" vertex="1">
          <mxGeometry x="701" y="850" width="100" height="40" as="geometry" />
        </mxCell>
        <mxCell id="hfd_dL3A9iqUe7PELF8y-139" value="end_time" style="ellipse;whiteSpace=wrap;html=1;align=center;fontStyle=4;" parent="1" vertex="1">
          <mxGeometry x="701" y="905" width="100" height="40" as="geometry" />
        </mxCell>
        <mxCell id="hfd_dL3A9iqUe7PELF8y-141" value="status" style="ellipse;whiteSpace=wrap;html=1;align=center;" parent="1" vertex="1">
          <mxGeometry x="701" y="970" width="100" height="40" as="geometry" />
        </mxCell>
        <mxCell id="hfd_dL3A9iqUe7PELF8y-142" value="" style="endArrow=none;html=1;rounded=0;entryX=0;entryY=0.5;entryDx=0;entryDy=0;exitX=1;exitY=0.5;exitDx=0;exitDy=0;" parent="1" source="hfd_dL3A9iqUe7PELF8y-134" target="hfd_dL3A9iqUe7PELF8y-135" edge="1">
          <mxGeometry relative="1" as="geometry">
            <mxPoint x="897" y="560" as="sourcePoint" />
            <mxPoint x="917" y="585" as="targetPoint" />
          </mxGeometry>
        </mxCell>
        <mxCell id="hfd_dL3A9iqUe7PELF8y-143" value="" style="endArrow=none;html=1;rounded=0;entryX=0;entryY=0.5;entryDx=0;entryDy=0;exitX=1;exitY=0.5;exitDx=0;exitDy=0;" parent="1" source="hfd_dL3A9iqUe7PELF8y-134" target="hfd_dL3A9iqUe7PELF8y-136" edge="1">
          <mxGeometry relative="1" as="geometry">
            <mxPoint x="655" y="810" as="sourcePoint" />
            <mxPoint x="711" y="700" as="targetPoint" />
          </mxGeometry>
        </mxCell>
        <mxCell id="hfd_dL3A9iqUe7PELF8y-144" value="" style="endArrow=none;html=1;rounded=0;entryX=0;entryY=0.5;entryDx=0;entryDy=0;exitX=1;exitY=0.5;exitDx=0;exitDy=0;" parent="1" source="hfd_dL3A9iqUe7PELF8y-134" target="hfd_dL3A9iqUe7PELF8y-137" edge="1">
          <mxGeometry relative="1" as="geometry">
            <mxPoint x="655" y="810" as="sourcePoint" />
            <mxPoint x="711" y="760" as="targetPoint" />
          </mxGeometry>
        </mxCell>
        <mxCell id="hfd_dL3A9iqUe7PELF8y-145" value="" style="endArrow=none;html=1;rounded=0;entryX=0;entryY=0.5;entryDx=0;entryDy=0;exitX=1;exitY=0.5;exitDx=0;exitDy=0;" parent="1" source="hfd_dL3A9iqUe7PELF8y-134" target="hfd_dL3A9iqUe7PELF8y-138" edge="1">
          <mxGeometry relative="1" as="geometry">
            <mxPoint x="645" y="810" as="sourcePoint" />
            <mxPoint x="711" y="830" as="targetPoint" />
          </mxGeometry>
        </mxCell>
        <mxCell id="hfd_dL3A9iqUe7PELF8y-146" value="" style="endArrow=none;html=1;rounded=0;entryX=0;entryY=0.5;entryDx=0;entryDy=0;exitX=1;exitY=0.5;exitDx=0;exitDy=0;" parent="1" source="hfd_dL3A9iqUe7PELF8y-134" target="hfd_dL3A9iqUe7PELF8y-139" edge="1">
          <mxGeometry relative="1" as="geometry">
            <mxPoint x="655" y="820" as="sourcePoint" />
            <mxPoint x="711" y="880" as="targetPoint" />
          </mxGeometry>
        </mxCell>
        <mxCell id="hfd_dL3A9iqUe7PELF8y-147" value="" style="endArrow=none;html=1;rounded=0;exitX=1;exitY=0.5;exitDx=0;exitDy=0;entryX=0;entryY=0.5;entryDx=0;entryDy=0;" parent="1" source="hfd_dL3A9iqUe7PELF8y-134" target="hfd_dL3A9iqUe7PELF8y-141" edge="1">
          <mxGeometry relative="1" as="geometry">
            <mxPoint x="655" y="810" as="sourcePoint" />
            <mxPoint x="699" y="990" as="targetPoint" />
          </mxGeometry>
        </mxCell>
        <mxCell id="hfd_dL3A9iqUe7PELF8y-148" value="books" style="shape=rhombus;perimeter=rhombusPerimeter;whiteSpace=wrap;html=1;align=center;" parent="1" vertex="1">
          <mxGeometry x="300" y="770" width="120" height="60" as="geometry" />
        </mxCell>
        <mxCell id="hfd_dL3A9iqUe7PELF8y-154" value="" style="endArrow=none;html=1;rounded=0;entryX=0;entryY=0.5;entryDx=0;entryDy=0;exitX=1;exitY=0.5;exitDx=0;exitDy=0;" parent="1" source="hfd_dL3A9iqUe7PELF8y-148" target="hfd_dL3A9iqUe7PELF8y-134" edge="1">
          <mxGeometry relative="1" as="geometry">
            <mxPoint x="510" y="545" as="sourcePoint" />
            <mxPoint x="588" y="545" as="targetPoint" />
          </mxGeometry>
        </mxCell>
        <mxCell id="hfd_dL3A9iqUe7PELF8y-155" value="N" style="resizable=0;html=1;whiteSpace=wrap;align=right;verticalAlign=bottom;" parent="hfd_dL3A9iqUe7PELF8y-154" connectable="0" vertex="1">
          <mxGeometry x="1" relative="1" as="geometry">
            <mxPoint x="-1" as="offset" />
          </mxGeometry>
        </mxCell>
        <mxCell id="hfd_dL3A9iqUe7PELF8y-156" value="" style="endArrow=none;html=1;rounded=0;dashed=1;dashPattern=1 2;entryX=1;entryY=1;entryDx=0;entryDy=0;exitX=0;exitY=0.5;exitDx=0;exitDy=0;" parent="1" source="hfd_dL3A9iqUe7PELF8y-121" target="hfd_dL3A9iqUe7PELF8y-2" edge="1">
          <mxGeometry relative="1" as="geometry">
            <mxPoint x="430" y="550" as="sourcePoint" />
            <mxPoint x="300" y="310" as="targetPoint" />
          </mxGeometry>
        </mxCell>
        <mxCell id="hfd_dL3A9iqUe7PELF8y-157" value="1" style="resizable=0;html=1;whiteSpace=wrap;align=right;verticalAlign=bottom;" parent="hfd_dL3A9iqUe7PELF8y-156" connectable="0" vertex="1">
          <mxGeometry x="1" relative="1" as="geometry">
            <mxPoint x="20" y="20" as="offset" />
          </mxGeometry>
        </mxCell>
        <mxCell id="hfd_dL3A9iqUe7PELF8y-158" value="" style="endArrow=none;html=1;rounded=0;dashed=1;dashPattern=1 2;exitX=0;exitY=0.5;exitDx=0;exitDy=0;entryX=1;entryY=0;entryDx=0;entryDy=0;" parent="1" source="hfd_dL3A9iqUe7PELF8y-84" target="hfd_dL3A9iqUe7PELF8y-2" edge="1">
          <mxGeometry relative="1" as="geometry">
            <mxPoint x="470" y="350" as="sourcePoint" />
            <mxPoint x="630" y="350" as="targetPoint" />
          </mxGeometry>
        </mxCell>
        <mxCell id="hfd_dL3A9iqUe7PELF8y-159" value="M" style="resizable=0;html=1;whiteSpace=wrap;align=right;verticalAlign=bottom;" parent="hfd_dL3A9iqUe7PELF8y-158" connectable="0" vertex="1">
          <mxGeometry x="1" relative="1" as="geometry" />
        </mxCell>
        <mxCell id="hfd_dL3A9iqUe7PELF8y-160" value="" style="endArrow=none;html=1;rounded=0;dashed=1;dashPattern=1 2;exitX=0;exitY=0.5;exitDx=0;exitDy=0;entryX=1;entryY=0.25;entryDx=0;entryDy=0;" parent="1" source="hfd_dL3A9iqUe7PELF8y-101" target="hfd_dL3A9iqUe7PELF8y-2" edge="1">
          <mxGeometry relative="1" as="geometry">
            <mxPoint x="375" y="190" as="sourcePoint" />
            <mxPoint x="310" y="210" as="targetPoint" />
          </mxGeometry>
        </mxCell>
        <mxCell id="hfd_dL3A9iqUe7PELF8y-161" value="M" style="resizable=0;html=1;whiteSpace=wrap;align=right;verticalAlign=bottom;" parent="hfd_dL3A9iqUe7PELF8y-160" connectable="0" vertex="1">
          <mxGeometry x="1" relative="1" as="geometry">
            <mxPoint x="20" y="10" as="offset" />
          </mxGeometry>
        </mxCell>
        <mxCell id="hfd_dL3A9iqUe7PELF8y-162" value="" style="endArrow=none;html=1;rounded=0;dashed=1;dashPattern=1 2;exitX=0;exitY=0.5;exitDx=0;exitDy=0;entryX=0.75;entryY=1;entryDx=0;entryDy=0;" parent="1" source="hfd_dL3A9iqUe7PELF8y-148" target="hfd_dL3A9iqUe7PELF8y-2" edge="1">
          <mxGeometry relative="1" as="geometry">
            <mxPoint x="530" y="250" as="sourcePoint" />
            <mxPoint x="270" y="310" as="targetPoint" />
          </mxGeometry>
        </mxCell>
        <mxCell id="hfd_dL3A9iqUe7PELF8y-163" value="1" style="resizable=0;html=1;whiteSpace=wrap;align=right;verticalAlign=bottom;" parent="hfd_dL3A9iqUe7PELF8y-162" connectable="0" vertex="1">
          <mxGeometry x="1" relative="1" as="geometry">
            <mxPoint x="10" y="20" as="offset" />
          </mxGeometry>
        </mxCell>
        <mxCell id="hfd_dL3A9iqUe7PELF8y-164" value="group_class" style="rounded=0;whiteSpace=wrap;html=1;" parent="1" vertex="1">
          <mxGeometry x="470" y="1140" width="175" height="60" as="geometry" />
        </mxCell>
        <mxCell id="hfd_dL3A9iqUe7PELF8y-165" value="class_id" style="ellipse;whiteSpace=wrap;html=1;align=center;fontStyle=4;" parent="1" vertex="1">
          <mxGeometry x="701" y="1065" width="100" height="40" as="geometry" />
        </mxCell>
        <mxCell id="hfd_dL3A9iqUe7PELF8y-171" value="" style="endArrow=none;html=1;rounded=0;entryX=0;entryY=0.5;entryDx=0;entryDy=0;exitX=1;exitY=0.5;exitDx=0;exitDy=0;" parent="1" source="hfd_dL3A9iqUe7PELF8y-164" target="hfd_dL3A9iqUe7PELF8y-165" edge="1">
          <mxGeometry relative="1" as="geometry">
            <mxPoint x="897" y="930" as="sourcePoint" />
            <mxPoint x="917" y="955" as="targetPoint" />
          </mxGeometry>
        </mxCell>
        <mxCell id="hfd_dL3A9iqUe7PELF8y-172" value="" style="endArrow=none;html=1;rounded=0;entryX=0;entryY=0.5;entryDx=0;entryDy=0;exitX=1;exitY=0.5;exitDx=0;exitDy=0;" parent="1" source="hfd_dL3A9iqUe7PELF8y-164" target="hfd_dL3A9iqUe7PELF8y-179" edge="1">
          <mxGeometry relative="1" as="geometry">
            <mxPoint x="655" y="1180" as="sourcePoint" />
            <mxPoint x="701" y="1120" as="targetPoint" />
          </mxGeometry>
        </mxCell>
        <mxCell id="hfd_dL3A9iqUe7PELF8y-173" value="" style="endArrow=none;html=1;rounded=0;entryX=0;entryY=0.5;entryDx=0;entryDy=0;exitX=1;exitY=0.5;exitDx=0;exitDy=0;" parent="1" source="hfd_dL3A9iqUe7PELF8y-164" target="hfd_dL3A9iqUe7PELF8y-180" edge="1">
          <mxGeometry relative="1" as="geometry">
            <mxPoint x="655" y="1180" as="sourcePoint" />
            <mxPoint x="701" y="1180" as="targetPoint" />
          </mxGeometry>
        </mxCell>
        <mxCell id="hfd_dL3A9iqUe7PELF8y-174" value="" style="endArrow=none;html=1;rounded=0;entryX=0;entryY=0.5;entryDx=0;entryDy=0;exitX=1;exitY=0.5;exitDx=0;exitDy=0;" parent="1" source="hfd_dL3A9iqUe7PELF8y-164" target="hfd_dL3A9iqUe7PELF8y-181" edge="1">
          <mxGeometry relative="1" as="geometry">
            <mxPoint x="645" y="1180" as="sourcePoint" />
            <mxPoint x="701" y="1240" as="targetPoint" />
          </mxGeometry>
        </mxCell>
        <mxCell id="hfd_dL3A9iqUe7PELF8y-175" value="" style="endArrow=none;html=1;rounded=0;entryX=0;entryY=0.5;entryDx=0;entryDy=0;exitX=1;exitY=0.5;exitDx=0;exitDy=0;" parent="1" source="hfd_dL3A9iqUe7PELF8y-164" target="hfd_dL3A9iqUe7PELF8y-182" edge="1">
          <mxGeometry relative="1" as="geometry">
            <mxPoint x="655" y="1190" as="sourcePoint" />
            <mxPoint x="701" y="1295" as="targetPoint" />
          </mxGeometry>
        </mxCell>
        <mxCell id="hfd_dL3A9iqUe7PELF8y-179" value="name" style="ellipse;whiteSpace=wrap;html=1;align=center;" parent="1" vertex="1">
          <mxGeometry x="701" y="1175" width="100" height="40" as="geometry" />
        </mxCell>
        <mxCell id="hfd_dL3A9iqUe7PELF8y-180" value="date" style="ellipse;whiteSpace=wrap;html=1;align=center;" parent="1" vertex="1">
          <mxGeometry x="710" y="1235" width="100" height="40" as="geometry" />
        </mxCell>
        <mxCell id="hfd_dL3A9iqUe7PELF8y-181" value="start_time" style="ellipse;whiteSpace=wrap;html=1;align=center;" parent="1" vertex="1">
          <mxGeometry x="710" y="1305" width="100" height="40" as="geometry" />
        </mxCell>
        <mxCell id="hfd_dL3A9iqUe7PELF8y-182" value="end_time" style="ellipse;whiteSpace=wrap;html=1;align=center;" parent="1" vertex="1">
          <mxGeometry x="710" y="1365" width="100" height="40" as="geometry" />
        </mxCell>
        <mxCell id="hfd_dL3A9iqUe7PELF8y-185" value="trainer_id(FK)" style="ellipse;whiteSpace=wrap;html=1;align=center;" parent="1" vertex="1">
          <mxGeometry x="701" y="1115" width="100" height="40" as="geometry" />
        </mxCell>
        <mxCell id="hfd_dL3A9iqUe7PELF8y-186" value="" style="endArrow=none;html=1;rounded=0;entryX=0;entryY=0.5;entryDx=0;entryDy=0;exitX=1;exitY=0.5;exitDx=0;exitDy=0;" parent="1" source="hfd_dL3A9iqUe7PELF8y-164" target="hfd_dL3A9iqUe7PELF8y-185" edge="1">
          <mxGeometry relative="1" as="geometry">
            <mxPoint x="655" y="1180" as="sourcePoint" />
            <mxPoint x="711" y="1070" as="targetPoint" />
          </mxGeometry>
        </mxCell>
        <mxCell id="hfd_dL3A9iqUe7PELF8y-188" value="books" style="shape=rhombus;perimeter=rhombusPerimeter;whiteSpace=wrap;html=1;align=center;" parent="1" vertex="1">
          <mxGeometry x="290" y="1055" width="120" height="60" as="geometry" />
        </mxCell>
        <mxCell id="hfd_dL3A9iqUe7PELF8y-189" value="" style="endArrow=none;html=1;rounded=0;entryX=0;entryY=0.5;entryDx=0;entryDy=0;exitX=1;exitY=0.5;exitDx=0;exitDy=0;" parent="1" source="hfd_dL3A9iqUe7PELF8y-188" target="hfd_dL3A9iqUe7PELF8y-164" edge="1">
          <mxGeometry relative="1" as="geometry">
            <mxPoint x="430" y="810" as="sourcePoint" />
            <mxPoint x="480" y="810" as="targetPoint" />
          </mxGeometry>
        </mxCell>
        <mxCell id="hfd_dL3A9iqUe7PELF8y-190" value="N" style="resizable=0;html=1;whiteSpace=wrap;align=right;verticalAlign=bottom;" parent="hfd_dL3A9iqUe7PELF8y-189" connectable="0" vertex="1">
          <mxGeometry x="1" relative="1" as="geometry">
            <mxPoint y="-15" as="offset" />
          </mxGeometry>
        </mxCell>
        <mxCell id="hfd_dL3A9iqUe7PELF8y-193" value="" style="endArrow=none;html=1;rounded=0;dashed=1;dashPattern=1 2;exitX=0;exitY=0.5;exitDx=0;exitDy=0;entryX=0.5;entryY=1;entryDx=0;entryDy=0;" parent="1" source="hfd_dL3A9iqUe7PELF8y-188" target="hfd_dL3A9iqUe7PELF8y-2" edge="1">
          <mxGeometry relative="1" as="geometry">
            <mxPoint x="310" y="810" as="sourcePoint" />
            <mxPoint x="250" y="270" as="targetPoint" />
          </mxGeometry>
        </mxCell>
        <mxCell id="hfd_dL3A9iqUe7PELF8y-194" value="M" style="resizable=0;html=1;whiteSpace=wrap;align=right;verticalAlign=bottom;" parent="hfd_dL3A9iqUe7PELF8y-193" connectable="0" vertex="1">
          <mxGeometry x="1" relative="1" as="geometry">
            <mxPoint x="10" y="20" as="offset" />
          </mxGeometry>
        </mxCell>
        <mxCell id="hfd_dL3A9iqUe7PELF8y-199" value="availability" style="rounded=0;whiteSpace=wrap;html=1;" parent="1" vertex="1">
          <mxGeometry x="1340" y="745" width="175" height="60" as="geometry" />
        </mxCell>
        <mxCell id="hfd_dL3A9iqUe7PELF8y-201" value="creates" style="shape=rhombus;perimeter=rhombusPerimeter;whiteSpace=wrap;html=1;align=center;" parent="1" vertex="1">
          <mxGeometry x="1160" y="805" width="120" height="60" as="geometry" />
        </mxCell>
        <mxCell id="hfd_dL3A9iqUe7PELF8y-202" value="availability_id" style="ellipse;whiteSpace=wrap;html=1;align=center;fontStyle=4;" parent="1" vertex="1">
          <mxGeometry x="1550" y="630" width="100" height="40" as="geometry" />
        </mxCell>
        <mxCell id="hfd_dL3A9iqUe7PELF8y-204" value="trainer_id (FK)" style="ellipse;whiteSpace=wrap;html=1;align=center;" parent="1" vertex="1">
          <mxGeometry x="1550" y="685" width="100" height="40" as="geometry" />
        </mxCell>
        <mxCell id="hfd_dL3A9iqUe7PELF8y-205" value="date" style="ellipse;whiteSpace=wrap;html=1;align=center;" parent="1" vertex="1">
          <mxGeometry x="1550" y="750" width="100" height="40" as="geometry" />
        </mxCell>
        <mxCell id="hfd_dL3A9iqUe7PELF8y-206" value="start_time" style="ellipse;whiteSpace=wrap;html=1;align=center;" parent="1" vertex="1">
          <mxGeometry x="1550" y="820" width="100" height="40" as="geometry" />
        </mxCell>
        <mxCell id="hfd_dL3A9iqUe7PELF8y-207" value="end_time" style="ellipse;whiteSpace=wrap;html=1;align=center;" parent="1" vertex="1">
          <mxGeometry x="1550" y="880" width="100" height="40" as="geometry" />
        </mxCell>
        <mxCell id="hfd_dL3A9iqUe7PELF8y-208" value="" style="endArrow=none;html=1;rounded=0;entryX=1;entryY=0.5;entryDx=0;entryDy=0;exitX=0;exitY=0.5;exitDx=0;exitDy=0;" parent="1" source="hfd_dL3A9iqUe7PELF8y-202" target="hfd_dL3A9iqUe7PELF8y-199" edge="1">
          <mxGeometry relative="1" as="geometry">
            <mxPoint x="2030" y="939" as="sourcePoint" />
            <mxPoint x="2120" y="1000" as="targetPoint" />
          </mxGeometry>
        </mxCell>
        <mxCell id="hfd_dL3A9iqUe7PELF8y-209" value="" style="endArrow=none;html=1;rounded=0;entryX=1;entryY=0.5;entryDx=0;entryDy=0;exitX=0;exitY=0.5;exitDx=0;exitDy=0;" parent="1" source="hfd_dL3A9iqUe7PELF8y-204" target="hfd_dL3A9iqUe7PELF8y-199" edge="1">
          <mxGeometry relative="1" as="geometry">
            <mxPoint x="1560" y="660" as="sourcePoint" />
            <mxPoint x="1525" y="755" as="targetPoint" />
          </mxGeometry>
        </mxCell>
        <mxCell id="hfd_dL3A9iqUe7PELF8y-210" value="" style="endArrow=none;html=1;rounded=0;entryX=1;entryY=0.5;entryDx=0;entryDy=0;exitX=0;exitY=0.5;exitDx=0;exitDy=0;" parent="1" source="hfd_dL3A9iqUe7PELF8y-205" target="hfd_dL3A9iqUe7PELF8y-199" edge="1">
          <mxGeometry relative="1" as="geometry">
            <mxPoint x="1560" y="715" as="sourcePoint" />
            <mxPoint x="1525" y="770" as="targetPoint" />
          </mxGeometry>
        </mxCell>
        <mxCell id="hfd_dL3A9iqUe7PELF8y-211" value="" style="endArrow=none;html=1;rounded=0;entryX=1;entryY=0.5;entryDx=0;entryDy=0;exitX=0;exitY=0.5;exitDx=0;exitDy=0;" parent="1" source="hfd_dL3A9iqUe7PELF8y-206" target="hfd_dL3A9iqUe7PELF8y-199" edge="1">
          <mxGeometry relative="1" as="geometry">
            <mxPoint x="1560" y="780" as="sourcePoint" />
            <mxPoint x="1525" y="785" as="targetPoint" />
          </mxGeometry>
        </mxCell>
        <mxCell id="hfd_dL3A9iqUe7PELF8y-212" value="" style="endArrow=none;html=1;rounded=0;entryX=1;entryY=0.5;entryDx=0;entryDy=0;exitX=0;exitY=0.5;exitDx=0;exitDy=0;" parent="1" source="hfd_dL3A9iqUe7PELF8y-207" target="hfd_dL3A9iqUe7PELF8y-199" edge="1">
          <mxGeometry relative="1" as="geometry">
            <mxPoint x="1560" y="850" as="sourcePoint" />
            <mxPoint x="1525" y="800" as="targetPoint" />
          </mxGeometry>
        </mxCell>
        <mxCell id="hfd_dL3A9iqUe7PELF8y-213" value="" style="endArrow=none;html=1;rounded=0;exitX=0.5;exitY=1;exitDx=0;exitDy=0;entryX=0.75;entryY=0;entryDx=0;entryDy=0;" parent="1" source="hfd_dL3A9iqUe7PELF8y-201" target="hfd_dL3A9iqUe7PELF8y-19" edge="1">
          <mxGeometry relative="1" as="geometry">
            <mxPoint x="1240" y="825" as="sourcePoint" />
            <mxPoint x="1400" y="825" as="targetPoint" />
          </mxGeometry>
        </mxCell>
        <mxCell id="hfd_dL3A9iqUe7PELF8y-214" value="1" style="resizable=0;html=1;whiteSpace=wrap;align=right;verticalAlign=bottom;" parent="hfd_dL3A9iqUe7PELF8y-213" connectable="0" vertex="1">
          <mxGeometry x="1" relative="1" as="geometry" />
        </mxCell>
        <mxCell id="hfd_dL3A9iqUe7PELF8y-215" value="" style="endArrow=none;html=1;rounded=0;entryX=0;entryY=0.5;entryDx=0;entryDy=0;exitX=0.5;exitY=0;exitDx=0;exitDy=0;" parent="1" source="hfd_dL3A9iqUe7PELF8y-201" target="hfd_dL3A9iqUe7PELF8y-199" edge="1">
          <mxGeometry relative="1" as="geometry">
            <mxPoint x="1240" y="825" as="sourcePoint" />
            <mxPoint x="1400" y="825" as="targetPoint" />
          </mxGeometry>
        </mxCell>
        <mxCell id="hfd_dL3A9iqUe7PELF8y-216" value="N" style="resizable=0;html=1;whiteSpace=wrap;align=right;verticalAlign=bottom;" parent="hfd_dL3A9iqUe7PELF8y-215" connectable="0" vertex="1">
          <mxGeometry x="1" relative="1" as="geometry" />
        </mxCell>
        <mxCell id="hfd_dL3A9iqUe7PELF8y-217" value="room" style="rounded=0;whiteSpace=wrap;html=1;" parent="1" vertex="1">
          <mxGeometry x="578" y="1565" width="120" height="60" as="geometry" />
        </mxCell>
        <mxCell id="hfd_dL3A9iqUe7PELF8y-218" value="room_id" style="ellipse;whiteSpace=wrap;html=1;align=center;fontStyle=4;" parent="1" vertex="1">
          <mxGeometry x="730" y="1537.5" width="100" height="40" as="geometry" />
        </mxCell>
        <mxCell id="hfd_dL3A9iqUe7PELF8y-223" value="name" style="ellipse;whiteSpace=wrap;html=1;align=center;" parent="1" vertex="1">
          <mxGeometry x="730" y="1612.5" width="100" height="40" as="geometry" />
        </mxCell>
        <mxCell id="hfd_dL3A9iqUe7PELF8y-224" value="" style="endArrow=none;html=1;rounded=0;entryX=1;entryY=0.25;entryDx=0;entryDy=0;exitX=0;exitY=0.5;exitDx=0;exitDy=0;" parent="1" source="hfd_dL3A9iqUe7PELF8y-218" target="hfd_dL3A9iqUe7PELF8y-217" edge="1">
          <mxGeometry relative="1" as="geometry">
            <mxPoint x="260" y="1514" as="sourcePoint" />
            <mxPoint x="350" y="1575" as="targetPoint" />
          </mxGeometry>
        </mxCell>
        <mxCell id="hfd_dL3A9iqUe7PELF8y-225" value="" style="endArrow=none;html=1;rounded=0;entryX=1;entryY=0.75;entryDx=0;entryDy=0;exitX=0;exitY=0.5;exitDx=0;exitDy=0;" parent="1" source="hfd_dL3A9iqUe7PELF8y-223" target="hfd_dL3A9iqUe7PELF8y-217" edge="1">
          <mxGeometry relative="1" as="geometry">
            <mxPoint x="740" y="1568" as="sourcePoint" />
            <mxPoint x="708" y="1590" as="targetPoint" />
          </mxGeometry>
        </mxCell>
        <mxCell id="hfd_dL3A9iqUe7PELF8y-226" value="room_booking" style="rounded=0;whiteSpace=wrap;html=1;" parent="1" vertex="1">
          <mxGeometry x="450" y="1450" width="120" height="60" as="geometry" />
        </mxCell>
        <mxCell id="hfd_dL3A9iqUe7PELF8y-227" value="has" style="shape=rhombus;perimeter=rhombusPerimeter;whiteSpace=wrap;html=1;align=center;" parent="1" vertex="1">
          <mxGeometry x="610" y="1455" width="120" height="60" as="geometry" />
        </mxCell>
        <mxCell id="hfd_dL3A9iqUe7PELF8y-230" value="" style="endArrow=none;html=1;rounded=0;dashed=1;dashPattern=1 2;exitX=0.25;exitY=0;exitDx=0;exitDy=0;entryX=0.5;entryY=1;entryDx=0;entryDy=0;" parent="1" source="hfd_dL3A9iqUe7PELF8y-217" target="hfd_dL3A9iqUe7PELF8y-227" edge="1">
          <mxGeometry relative="1" as="geometry">
            <mxPoint x="300" y="1095" as="sourcePoint" />
            <mxPoint x="220" y="270" as="targetPoint" />
          </mxGeometry>
        </mxCell>
        <mxCell id="hfd_dL3A9iqUe7PELF8y-231" value="M" style="resizable=0;html=1;whiteSpace=wrap;align=right;verticalAlign=bottom;" parent="hfd_dL3A9iqUe7PELF8y-230" connectable="0" vertex="1">
          <mxGeometry x="1" relative="1" as="geometry">
            <mxPoint x="-60" y="50" as="offset" />
          </mxGeometry>
        </mxCell>
        <mxCell id="hfd_dL3A9iqUe7PELF8y-232" value="" style="endArrow=none;html=1;rounded=0;entryX=0;entryY=0.5;entryDx=0;entryDy=0;exitX=1;exitY=0.5;exitDx=0;exitDy=0;" parent="1" source="hfd_dL3A9iqUe7PELF8y-226" target="hfd_dL3A9iqUe7PELF8y-227" edge="1">
          <mxGeometry relative="1" as="geometry">
            <mxPoint x="680" y="1525" as="sourcePoint" />
            <mxPoint x="648" y="1575" as="targetPoint" />
          </mxGeometry>
        </mxCell>
        <mxCell id="hfd_dL3A9iqUe7PELF8y-233" value="N" style="resizable=0;html=1;whiteSpace=wrap;align=right;verticalAlign=bottom;" parent="hfd_dL3A9iqUe7PELF8y-232" connectable="0" vertex="1">
          <mxGeometry x="1" relative="1" as="geometry">
            <mxPoint as="offset" />
          </mxGeometry>
        </mxCell>
        <mxCell id="hfd_dL3A9iqUe7PELF8y-234" value="manages" style="shape=rhombus;perimeter=rhombusPerimeter;whiteSpace=wrap;html=1;align=center;" parent="1" vertex="1">
          <mxGeometry x="180" y="1345" width="120" height="60" as="geometry" />
        </mxCell>
        <mxCell id="hfd_dL3A9iqUe7PELF8y-235" value="" style="endArrow=none;html=1;rounded=0;exitX=0.5;exitY=0;exitDx=0;exitDy=0;entryX=0.5;entryY=1;entryDx=0;entryDy=0;" parent="1" source="hfd_dL3A9iqUe7PELF8y-41" target="hfd_dL3A9iqUe7PELF8y-234" edge="1">
          <mxGeometry relative="1" as="geometry">
            <mxPoint x="360" y="1470" as="sourcePoint" />
            <mxPoint x="520" y="1470" as="targetPoint" />
          </mxGeometry>
        </mxCell>
        <mxCell id="hfd_dL3A9iqUe7PELF8y-236" value="1" style="resizable=0;html=1;whiteSpace=wrap;align=right;verticalAlign=bottom;" parent="hfd_dL3A9iqUe7PELF8y-235" connectable="0" vertex="1">
          <mxGeometry x="1" relative="1" as="geometry">
            <mxPoint x="120" y="140" as="offset" />
          </mxGeometry>
        </mxCell>
        <mxCell id="hfd_dL3A9iqUe7PELF8y-237" value="" style="endArrow=none;html=1;rounded=0;exitX=1;exitY=0.5;exitDx=0;exitDy=0;entryX=0;entryY=0.5;entryDx=0;entryDy=0;" parent="1" source="hfd_dL3A9iqUe7PELF8y-255" target="hfd_dL3A9iqUe7PELF8y-226" edge="1">
          <mxGeometry relative="1" as="geometry">
            <mxPoint x="380" y="1575" as="sourcePoint" />
            <mxPoint x="370" y="1465" as="targetPoint" />
          </mxGeometry>
        </mxCell>
        <mxCell id="hfd_dL3A9iqUe7PELF8y-238" value="M" style="resizable=0;html=1;whiteSpace=wrap;align=right;verticalAlign=bottom;" parent="hfd_dL3A9iqUe7PELF8y-237" connectable="0" vertex="1">
          <mxGeometry x="1" relative="1" as="geometry">
            <mxPoint y="-20" as="offset" />
          </mxGeometry>
        </mxCell>
        <mxCell id="hfd_dL3A9iqUe7PELF8y-239" value="room_id(FK)" style="ellipse;whiteSpace=wrap;html=1;align=center;fontStyle=4;" parent="1" vertex="1">
          <mxGeometry x="330" y="1305" width="100" height="40" as="geometry" />
        </mxCell>
        <mxCell id="hfd_dL3A9iqUe7PELF8y-240" value="date" style="ellipse;whiteSpace=wrap;html=1;align=center;fontStyle=4;" parent="1" vertex="1">
          <mxGeometry x="420" y="1270" width="100" height="40" as="geometry" />
        </mxCell>
        <mxCell id="hfd_dL3A9iqUe7PELF8y-241" value="start_time" style="ellipse;whiteSpace=wrap;html=1;align=center;fontStyle=4;" parent="1" vertex="1">
          <mxGeometry x="525" y="1290" width="100" height="40" as="geometry" />
        </mxCell>
        <mxCell id="hfd_dL3A9iqUe7PELF8y-242" value="end_time" style="ellipse;whiteSpace=wrap;html=1;align=center;fontStyle=4;" parent="1" vertex="1">
          <mxGeometry x="570" y="1345" width="100" height="40" as="geometry" />
        </mxCell>
        <mxCell id="hfd_dL3A9iqUe7PELF8y-243" value="" style="endArrow=none;html=1;rounded=0;exitX=0.5;exitY=0;exitDx=0;exitDy=0;entryX=0.5;entryY=1;entryDx=0;entryDy=0;" parent="1" source="hfd_dL3A9iqUe7PELF8y-226" target="hfd_dL3A9iqUe7PELF8y-239" edge="1">
          <mxGeometry relative="1" as="geometry">
            <mxPoint x="380" y="1575" as="sourcePoint" />
            <mxPoint x="370" y="1465" as="targetPoint" />
          </mxGeometry>
        </mxCell>
        <mxCell id="hfd_dL3A9iqUe7PELF8y-245" value="" style="endArrow=none;html=1;rounded=0;exitX=0.5;exitY=0;exitDx=0;exitDy=0;entryX=0.5;entryY=1;entryDx=0;entryDy=0;" parent="1" source="hfd_dL3A9iqUe7PELF8y-226" target="hfd_dL3A9iqUe7PELF8y-240" edge="1">
          <mxGeometry relative="1" as="geometry">
            <mxPoint x="490" y="1460" as="sourcePoint" />
            <mxPoint x="390" y="1355" as="targetPoint" />
          </mxGeometry>
        </mxCell>
        <mxCell id="hfd_dL3A9iqUe7PELF8y-246" value="" style="endArrow=none;html=1;rounded=0;exitX=0.5;exitY=0;exitDx=0;exitDy=0;entryX=0.5;entryY=1;entryDx=0;entryDy=0;" parent="1" source="hfd_dL3A9iqUe7PELF8y-226" target="hfd_dL3A9iqUe7PELF8y-241" edge="1">
          <mxGeometry relative="1" as="geometry">
            <mxPoint x="520" y="1460" as="sourcePoint" />
            <mxPoint x="480" y="1320" as="targetPoint" />
          </mxGeometry>
        </mxCell>
        <mxCell id="hfd_dL3A9iqUe7PELF8y-247" value="" style="endArrow=none;html=1;rounded=0;exitX=0.5;exitY=0;exitDx=0;exitDy=0;entryX=0.5;entryY=1;entryDx=0;entryDy=0;" parent="1" source="hfd_dL3A9iqUe7PELF8y-226" target="hfd_dL3A9iqUe7PELF8y-242" edge="1">
          <mxGeometry relative="1" as="geometry">
            <mxPoint x="520" y="1460" as="sourcePoint" />
            <mxPoint x="585" y="1340" as="targetPoint" />
          </mxGeometry>
        </mxCell>
        <mxCell id="hfd_dL3A9iqUe7PELF8y-253" value="" style="endArrow=none;html=1;rounded=0;exitX=0.5;exitY=0;exitDx=0;exitDy=0;entryX=0;entryY=1;entryDx=0;entryDy=0;" parent="1" source="hfd_dL3A9iqUe7PELF8y-234" target="hfd_dL3A9iqUe7PELF8y-164" edge="1">
          <mxGeometry relative="1" as="geometry">
            <mxPoint x="430" y="1435" as="sourcePoint" />
            <mxPoint x="460" y="1490" as="targetPoint" />
          </mxGeometry>
        </mxCell>
        <mxCell id="hfd_dL3A9iqUe7PELF8y-254" value="M" style="resizable=0;html=1;whiteSpace=wrap;align=right;verticalAlign=bottom;" parent="hfd_dL3A9iqUe7PELF8y-253" connectable="0" vertex="1">
          <mxGeometry x="1" relative="1" as="geometry">
            <mxPoint as="offset" />
          </mxGeometry>
        </mxCell>
        <mxCell id="hfd_dL3A9iqUe7PELF8y-255" value="manages" style="shape=rhombus;perimeter=rhombusPerimeter;whiteSpace=wrap;html=1;align=center;" parent="1" vertex="1">
          <mxGeometry x="305" y="1395" width="120" height="60" as="geometry" />
        </mxCell>
        <mxCell id="hfd_dL3A9iqUe7PELF8y-256" value="" style="endArrow=none;html=1;rounded=0;exitX=0.5;exitY=0;exitDx=0;exitDy=0;entryX=0.5;entryY=1;entryDx=0;entryDy=0;" parent="1" source="hfd_dL3A9iqUe7PELF8y-41" target="hfd_dL3A9iqUe7PELF8y-255" edge="1">
          <mxGeometry relative="1" as="geometry">
            <mxPoint x="380" y="1575" as="sourcePoint" />
            <mxPoint x="250" y="1415" as="targetPoint" />
          </mxGeometry>
        </mxCell>
        <mxCell id="hfd_dL3A9iqUe7PELF8y-257" value="1" style="resizable=0;html=1;whiteSpace=wrap;align=right;verticalAlign=bottom;" parent="hfd_dL3A9iqUe7PELF8y-256" connectable="0" vertex="1">
          <mxGeometry x="1" relative="1" as="geometry">
            <mxPoint x="75" y="180" as="offset" />
          </mxGeometry>
        </mxCell>
        <mxCell id="hfd_dL3A9iqUe7PELF8y-259" value="" style="endArrow=none;html=1;rounded=0;dashed=1;dashPattern=1 2;exitX=1;exitY=0.5;exitDx=0;exitDy=0;entryX=0;entryY=0.5;entryDx=0;entryDy=0;" parent="1" source="hfd_dL3A9iqUe7PELF8y-84" target="hfd_dL3A9iqUe7PELF8y-52" edge="1">
          <mxGeometry relative="1" as="geometry">
            <mxPoint x="375" y="190" as="sourcePoint" />
            <mxPoint x="570" y="120" as="targetPoint" />
          </mxGeometry>
        </mxCell>
        <mxCell id="hfd_dL3A9iqUe7PELF8y-260" value="N" style="resizable=0;html=1;whiteSpace=wrap;align=right;verticalAlign=bottom;" parent="hfd_dL3A9iqUe7PELF8y-259" connectable="0" vertex="1">
          <mxGeometry x="1" relative="1" as="geometry" />
        </mxCell>
        <mxCell id="hfd_dL3A9iqUe7PELF8y-264" value="equipment" style="rounded=0;whiteSpace=wrap;html=1;" parent="1" vertex="1">
          <mxGeometry x="470" y="1780" width="150" height="60" as="geometry" />
        </mxCell>
        <mxCell id="hfd_dL3A9iqUe7PELF8y-265" value="name" style="ellipse;whiteSpace=wrap;html=1;align=center;" parent="1" vertex="1">
          <mxGeometry x="645" y="1790" width="100" height="40" as="geometry" />
        </mxCell>
        <mxCell id="hfd_dL3A9iqUe7PELF8y-266" value="last_maintained" style="ellipse;whiteSpace=wrap;html=1;align=center;" parent="1" vertex="1">
          <mxGeometry x="645" y="1840" width="100" height="40" as="geometry" />
        </mxCell>
        <mxCell id="hfd_dL3A9iqUe7PELF8y-267" value="status" style="ellipse;whiteSpace=wrap;html=1;align=center;" parent="1" vertex="1">
          <mxGeometry x="645" y="1900" width="100" height="40" as="geometry" />
        </mxCell>
        <mxCell id="hfd_dL3A9iqUe7PELF8y-269" value="&lt;u&gt;equipment_id&lt;/u&gt;" style="ellipse;whiteSpace=wrap;html=1;align=center;" parent="1" vertex="1">
          <mxGeometry x="645" y="1730" width="100" height="40" as="geometry" />
        </mxCell>
        <mxCell id="hfd_dL3A9iqUe7PELF8y-270" value="" style="endArrow=none;html=1;rounded=0;entryX=1;entryY=0.5;entryDx=0;entryDy=0;exitX=0;exitY=0.5;exitDx=0;exitDy=0;" parent="1" source="hfd_dL3A9iqUe7PELF8y-269" target="hfd_dL3A9iqUe7PELF8y-264" edge="1">
          <mxGeometry relative="1" as="geometry">
            <mxPoint x="650" y="1750" as="sourcePoint" />
            <mxPoint x="708" y="1620" as="targetPoint" />
          </mxGeometry>
        </mxCell>
        <mxCell id="hfd_dL3A9iqUe7PELF8y-271" value="" style="endArrow=none;html=1;rounded=0;entryX=1;entryY=0.5;entryDx=0;entryDy=0;exitX=0;exitY=0.5;exitDx=0;exitDy=0;" parent="1" source="hfd_dL3A9iqUe7PELF8y-265" target="hfd_dL3A9iqUe7PELF8y-264" edge="1">
          <mxGeometry relative="1" as="geometry">
            <mxPoint x="655" y="1760" as="sourcePoint" />
            <mxPoint x="630" y="1805" as="targetPoint" />
          </mxGeometry>
        </mxCell>
        <mxCell id="hfd_dL3A9iqUe7PELF8y-272" value="" style="endArrow=none;html=1;rounded=0;entryX=1;entryY=0.5;entryDx=0;entryDy=0;exitX=0;exitY=0.5;exitDx=0;exitDy=0;" parent="1" source="hfd_dL3A9iqUe7PELF8y-266" target="hfd_dL3A9iqUe7PELF8y-264" edge="1">
          <mxGeometry relative="1" as="geometry">
            <mxPoint x="655" y="1820" as="sourcePoint" />
            <mxPoint x="630" y="1820" as="targetPoint" />
          </mxGeometry>
        </mxCell>
        <mxCell id="hfd_dL3A9iqUe7PELF8y-273" value="" style="endArrow=none;html=1;rounded=0;entryX=1;entryY=0.5;entryDx=0;entryDy=0;exitX=0;exitY=0.5;exitDx=0;exitDy=0;" parent="1" source="hfd_dL3A9iqUe7PELF8y-267" target="hfd_dL3A9iqUe7PELF8y-264" edge="1">
          <mxGeometry relative="1" as="geometry">
            <mxPoint x="655" y="1880" as="sourcePoint" />
            <mxPoint x="630" y="1835" as="targetPoint" />
          </mxGeometry>
        </mxCell>
        <mxCell id="hfd_dL3A9iqUe7PELF8y-274" value="manages" style="shape=rhombus;perimeter=rhombusPerimeter;whiteSpace=wrap;html=1;align=center;" parent="1" vertex="1">
          <mxGeometry x="390" y="1685" width="120" height="60" as="geometry" />
        </mxCell>
        <mxCell id="hfd_dL3A9iqUe7PELF8y-275" value="" style="endArrow=none;html=1;rounded=0;exitX=1;exitY=1;exitDx=0;exitDy=0;entryX=0.5;entryY=0;entryDx=0;entryDy=0;" parent="1" source="hfd_dL3A9iqUe7PELF8y-41" target="hfd_dL3A9iqUe7PELF8y-274" edge="1">
          <mxGeometry relative="1" as="geometry">
            <mxPoint x="380" y="1575" as="sourcePoint" />
            <mxPoint x="375" y="1465" as="targetPoint" />
          </mxGeometry>
        </mxCell>
        <mxCell id="hfd_dL3A9iqUe7PELF8y-277" value="" style="endArrow=none;html=1;rounded=0;exitX=0.5;exitY=1;exitDx=0;exitDy=0;entryX=0;entryY=0.5;entryDx=0;entryDy=0;" parent="1" source="hfd_dL3A9iqUe7PELF8y-274" target="hfd_dL3A9iqUe7PELF8y-264" edge="1">
          <mxGeometry relative="1" as="geometry">
            <mxPoint x="435" y="1435" as="sourcePoint" />
            <mxPoint x="460" y="1490" as="targetPoint" />
          </mxGeometry>
        </mxCell>
        <mxCell id="hfd_dL3A9iqUe7PELF8y-278" value="M" style="resizable=0;html=1;whiteSpace=wrap;align=right;verticalAlign=bottom;" parent="hfd_dL3A9iqUe7PELF8y-277" connectable="0" vertex="1">
          <mxGeometry x="1" relative="1" as="geometry">
            <mxPoint x="5" y="-30" as="offset" />
          </mxGeometry>
        </mxCell>
        <mxCell id="hfd_dL3A9iqUe7PELF8y-279" value="billing" style="rounded=0;whiteSpace=wrap;html=1;" parent="1" vertex="1">
          <mxGeometry x="277.5" y="1950" width="150" height="60" as="geometry" />
        </mxCell>
        <mxCell id="hfd_dL3A9iqUe7PELF8y-280" value="member_id (FK)" style="ellipse;whiteSpace=wrap;html=1;align=center;" parent="1" vertex="1">
          <mxGeometry x="500" y="1930" width="100" height="40" as="geometry" />
        </mxCell>
        <mxCell id="hfd_dL3A9iqUe7PELF8y-281" value="amount" style="ellipse;whiteSpace=wrap;html=1;align=center;" parent="1" vertex="1">
          <mxGeometry x="500" y="2040" width="100" height="40" as="geometry" />
        </mxCell>
        <mxCell id="hfd_dL3A9iqUe7PELF8y-282" value="date" style="ellipse;whiteSpace=wrap;html=1;align=center;" parent="1" vertex="1">
          <mxGeometry x="500" y="2100" width="100" height="40" as="geometry" />
        </mxCell>
        <mxCell id="hfd_dL3A9iqUe7PELF8y-283" value="&lt;u&gt;billing_id&lt;/u&gt;" style="ellipse;whiteSpace=wrap;html=1;align=center;" parent="1" vertex="1">
          <mxGeometry x="500" y="1870" width="100" height="40" as="geometry" />
        </mxCell>
        <mxCell id="hfd_dL3A9iqUe7PELF8y-284" value="" style="endArrow=none;html=1;rounded=0;entryX=1;entryY=0.5;entryDx=0;entryDy=0;exitX=0;exitY=0.5;exitDx=0;exitDy=0;" parent="1" source="hfd_dL3A9iqUe7PELF8y-283" target="hfd_dL3A9iqUe7PELF8y-279" edge="1">
          <mxGeometry relative="1" as="geometry">
            <mxPoint x="507.5" y="1920" as="sourcePoint" />
            <mxPoint x="477.5" y="1980" as="targetPoint" />
          </mxGeometry>
        </mxCell>
        <mxCell id="hfd_dL3A9iqUe7PELF8y-285" value="" style="endArrow=none;html=1;rounded=0;entryX=1;entryY=0.5;entryDx=0;entryDy=0;exitX=0;exitY=0.5;exitDx=0;exitDy=0;" parent="1" source="hfd_dL3A9iqUe7PELF8y-280" target="hfd_dL3A9iqUe7PELF8y-279" edge="1">
          <mxGeometry relative="1" as="geometry">
            <mxPoint x="512.5" y="1930" as="sourcePoint" />
            <mxPoint x="477.5" y="1980" as="targetPoint" />
          </mxGeometry>
        </mxCell>
        <mxCell id="hfd_dL3A9iqUe7PELF8y-286" value="" style="endArrow=none;html=1;rounded=0;entryX=1;entryY=0.5;entryDx=0;entryDy=0;exitX=0;exitY=0.5;exitDx=0;exitDy=0;" parent="1" source="hfd_dL3A9iqUe7PELF8y-281" target="hfd_dL3A9iqUe7PELF8y-279" edge="1">
          <mxGeometry relative="1" as="geometry">
            <mxPoint x="512.5" y="1990" as="sourcePoint" />
            <mxPoint x="477.5" y="1980" as="targetPoint" />
          </mxGeometry>
        </mxCell>
        <mxCell id="hfd_dL3A9iqUe7PELF8y-287" value="" style="endArrow=none;html=1;rounded=0;entryX=1;entryY=0.5;entryDx=0;entryDy=0;exitX=0;exitY=0.5;exitDx=0;exitDy=0;" parent="1" source="hfd_dL3A9iqUe7PELF8y-282" target="hfd_dL3A9iqUe7PELF8y-279" edge="1">
          <mxGeometry relative="1" as="geometry">
            <mxPoint x="512.5" y="2050" as="sourcePoint" />
            <mxPoint x="477.5" y="1980" as="targetPoint" />
          </mxGeometry>
        </mxCell>
        <mxCell id="hfd_dL3A9iqUe7PELF8y-288" value="status" style="ellipse;whiteSpace=wrap;html=1;align=center;" parent="1" vertex="1">
          <mxGeometry x="500" y="2150" width="100" height="40" as="geometry" />
        </mxCell>
        <mxCell id="hfd_dL3A9iqUe7PELF8y-289" value="" style="endArrow=none;html=1;rounded=0;entryX=1;entryY=0.5;entryDx=0;entryDy=0;exitX=0;exitY=0.5;exitDx=0;exitDy=0;" parent="1" source="hfd_dL3A9iqUe7PELF8y-288" target="hfd_dL3A9iqUe7PELF8y-279" edge="1">
          <mxGeometry relative="1" as="geometry">
            <mxPoint x="513" y="2100" as="sourcePoint" />
            <mxPoint x="438" y="1990" as="targetPoint" />
          </mxGeometry>
        </mxCell>
        <mxCell id="hfd_dL3A9iqUe7PELF8y-290" value="manages" style="shape=rhombus;perimeter=rhombusPerimeter;whiteSpace=wrap;html=1;align=center;" parent="1" vertex="1">
          <mxGeometry x="260" y="1830" width="120" height="60" as="geometry" />
        </mxCell>
        <mxCell id="hfd_dL3A9iqUe7PELF8y-291" value="" style="endArrow=none;html=1;rounded=0;exitX=0.5;exitY=1;exitDx=0;exitDy=0;entryX=0.5;entryY=0;entryDx=0;entryDy=0;" parent="1" source="hfd_dL3A9iqUe7PELF8y-41" target="hfd_dL3A9iqUe7PELF8y-290" edge="1">
          <mxGeometry relative="1" as="geometry">
            <mxPoint x="440" y="1635" as="sourcePoint" />
            <mxPoint x="460" y="1695" as="targetPoint" />
          </mxGeometry>
        </mxCell>
        <mxCell id="hfd_dL3A9iqUe7PELF8y-292" value="1" style="resizable=0;html=1;whiteSpace=wrap;align=right;verticalAlign=bottom;" parent="1" connectable="0" vertex="1">
          <mxGeometry x="379.9951572989487" y="1645.113460576867" as="geometry" />
        </mxCell>
        <mxCell id="hfd_dL3A9iqUe7PELF8y-293" value="" style="endArrow=none;html=1;rounded=0;exitX=0.5;exitY=1;exitDx=0;exitDy=0;entryX=0.5;entryY=0;entryDx=0;entryDy=0;" parent="1" source="hfd_dL3A9iqUe7PELF8y-290" target="hfd_dL3A9iqUe7PELF8y-279" edge="1">
          <mxGeometry relative="1" as="geometry">
            <mxPoint x="460" y="1755" as="sourcePoint" />
            <mxPoint x="480" y="1820" as="targetPoint" />
          </mxGeometry>
        </mxCell>
        <mxCell id="hfd_dL3A9iqUe7PELF8y-294" value="M" style="resizable=0;html=1;whiteSpace=wrap;align=right;verticalAlign=bottom;" parent="hfd_dL3A9iqUe7PELF8y-293" connectable="0" vertex="1">
          <mxGeometry x="1" relative="1" as="geometry">
            <mxPoint x="8" as="offset" />
          </mxGeometry>
        </mxCell>
        <mxCell id="hfd_dL3A9iqUe7PELF8y-295" value="" style="endArrow=none;html=1;rounded=0;dashed=1;dashPattern=1 2;entryX=0.25;entryY=1;entryDx=0;entryDy=0;exitX=0.5;exitY=0;exitDx=0;exitDy=0;" parent="1" source="hfd_dL3A9iqUe7PELF8y-297" target="hfd_dL3A9iqUe7PELF8y-2" edge="1">
          <mxGeometry relative="1" as="geometry">
            <mxPoint x="80" y="1650" as="sourcePoint" />
            <mxPoint x="200" y="330" as="targetPoint" />
          </mxGeometry>
        </mxCell>
        <mxCell id="hfd_dL3A9iqUe7PELF8y-296" value="1" style="resizable=0;html=1;whiteSpace=wrap;align=right;verticalAlign=bottom;" parent="hfd_dL3A9iqUe7PELF8y-295" connectable="0" vertex="1">
          <mxGeometry x="1" relative="1" as="geometry">
            <mxPoint x="10" y="20" as="offset" />
          </mxGeometry>
        </mxCell>
        <mxCell id="hfd_dL3A9iqUe7PELF8y-297" value="has" style="shape=rhombus;perimeter=rhombusPerimeter;whiteSpace=wrap;html=1;align=center;" parent="1" vertex="1">
          <mxGeometry x="60" y="1940" width="120" height="60" as="geometry" />
        </mxCell>
        <mxCell id="hfd_dL3A9iqUe7PELF8y-298" value="" style="endArrow=none;html=1;rounded=0;exitX=1;exitY=0.5;exitDx=0;exitDy=0;entryX=0;entryY=0.5;entryDx=0;entryDy=0;" parent="1" source="hfd_dL3A9iqUe7PELF8y-297" target="hfd_dL3A9iqUe7PELF8y-279" edge="1">
          <mxGeometry relative="1" as="geometry">
            <mxPoint x="330" y="1900" as="sourcePoint" />
            <mxPoint x="363" y="1960" as="targetPoint" />
          </mxGeometry>
        </mxCell>
        <mxCell id="hfd_dL3A9iqUe7PELF8y-299" value="M" style="resizable=0;html=1;whiteSpace=wrap;align=right;verticalAlign=bottom;" parent="hfd_dL3A9iqUe7PELF8y-298" connectable="0" vertex="1">
          <mxGeometry x="1" relative="1" as="geometry">
            <mxPoint as="offset" />
          </mxGeometry>
        </mxCell>
        <mxCell id="hfd_dL3A9iqUe7PELF8y-300" value="has" style="shape=rhombus;perimeter=rhombusPerimeter;whiteSpace=wrap;html=1;align=center;" parent="1" vertex="1">
          <mxGeometry x="1110" y="1130" width="120" height="60" as="geometry" />
        </mxCell>
        <mxCell id="hfd_dL3A9iqUe7PELF8y-301" value="" style="endArrow=none;html=1;rounded=0;exitX=0;exitY=0.5;exitDx=0;exitDy=0;entryX=0.5;entryY=0;entryDx=0;entryDy=0;edgeStyle=orthogonalEdgeStyle;" parent="1" source="hfd_dL3A9iqUe7PELF8y-300" target="hfd_dL3A9iqUe7PELF8y-164" edge="1">
          <mxGeometry relative="1" as="geometry">
            <mxPoint x="1230" y="875" as="sourcePoint" />
            <mxPoint x="1210" y="980" as="targetPoint" />
            <Array as="points">
              <mxPoint x="877" y="1160" />
              <mxPoint x="877" y="1040" />
              <mxPoint x="557" y="1040" />
            </Array>
          </mxGeometry>
        </mxCell>
        <mxCell id="hfd_dL3A9iqUe7PELF8y-302" value="M" style="resizable=0;html=1;whiteSpace=wrap;align=right;verticalAlign=bottom;" parent="hfd_dL3A9iqUe7PELF8y-301" connectable="0" vertex="1">
          <mxGeometry x="1" relative="1" as="geometry" />
        </mxCell>
        <mxCell id="hfd_dL3A9iqUe7PELF8y-305" value="" style="endArrow=none;html=1;rounded=0;dashed=1;dashPattern=1 2;entryX=0.5;entryY=1;entryDx=0;entryDy=0;exitX=0.5;exitY=0;exitDx=0;exitDy=0;" parent="1" source="hfd_dL3A9iqUe7PELF8y-300" target="hfd_dL3A9iqUe7PELF8y-19" edge="1">
          <mxGeometry relative="1" as="geometry">
            <mxPoint x="970" y="990" as="sourcePoint" />
            <mxPoint x="1130" y="990" as="targetPoint" />
          </mxGeometry>
        </mxCell>
        <mxCell id="hfd_dL3A9iqUe7PELF8y-306" value="1" style="resizable=0;html=1;whiteSpace=wrap;align=right;verticalAlign=bottom;" parent="hfd_dL3A9iqUe7PELF8y-305" connectable="0" vertex="1">
          <mxGeometry x="1" relative="1" as="geometry">
            <mxPoint x="10" y="25" as="offset" />
          </mxGeometry>
        </mxCell>
        <mxCell id="hfd_dL3A9iqUe7PELF8y-307" value="has" style="shape=rhombus;perimeter=rhombusPerimeter;whiteSpace=wrap;html=1;align=center;" parent="1" vertex="1">
          <mxGeometry x="920" y="960" width="120" height="60" as="geometry" />
        </mxCell>
        <mxCell id="hfd_dL3A9iqUe7PELF8y-308" value="" style="endArrow=none;html=1;rounded=0;dashed=1;dashPattern=1 2;entryX=0;entryY=0.5;entryDx=0;entryDy=0;exitX=1;exitY=0.5;exitDx=0;exitDy=0;" parent="1" source="hfd_dL3A9iqUe7PELF8y-307" target="hfd_dL3A9iqUe7PELF8y-19" edge="1">
          <mxGeometry relative="1" as="geometry">
            <mxPoint x="1180" y="1140" as="sourcePoint" />
            <mxPoint x="1180" y="1040" as="targetPoint" />
          </mxGeometry>
        </mxCell>
        <mxCell id="hfd_dL3A9iqUe7PELF8y-309" value="1" style="resizable=0;html=1;whiteSpace=wrap;align=right;verticalAlign=bottom;" parent="hfd_dL3A9iqUe7PELF8y-308" connectable="0" vertex="1">
          <mxGeometry x="1" relative="1" as="geometry">
            <mxPoint x="-10" as="offset" />
          </mxGeometry>
        </mxCell>
        <mxCell id="hfd_dL3A9iqUe7PELF8y-310" value="" style="endArrow=none;html=1;rounded=0;exitX=0;exitY=0.5;exitDx=0;exitDy=0;entryX=0.5;entryY=1;entryDx=0;entryDy=0;edgeStyle=orthogonalEdgeStyle;" parent="1" source="hfd_dL3A9iqUe7PELF8y-307" target="hfd_dL3A9iqUe7PELF8y-134" edge="1">
          <mxGeometry relative="1" as="geometry">
            <mxPoint x="1120" y="1170" as="sourcePoint" />
            <mxPoint x="568" y="1150" as="targetPoint" />
            <Array as="points">
              <mxPoint x="920" y="1020" />
              <mxPoint x="557" y="1020" />
            </Array>
          </mxGeometry>
        </mxCell>
        <mxCell id="hfd_dL3A9iqUe7PELF8y-311" value="M" style="resizable=0;html=1;whiteSpace=wrap;align=right;verticalAlign=bottom;" parent="hfd_dL3A9iqUe7PELF8y-310" connectable="0" vertex="1">
          <mxGeometry x="1" relative="1" as="geometry">
            <mxPoint x="13" y="20" as="offset" />
          </mxGeometry>
        </mxCell>
        <mxCell id="hfd_dL3A9iqUe7PELF8y-312" value="1" style="resizable=0;html=1;whiteSpace=wrap;align=right;verticalAlign=bottom;" parent="1" connectable="0" vertex="1">
          <mxGeometry x="379.99568218050206" y="1557.500070376003" as="geometry" />
        </mxCell>
        <mxCell id="hfd_dL3A9iqUe7PELF8y-313" value="purpose" style="ellipse;whiteSpace=wrap;html=1;align=center;" parent="1" vertex="1">
          <mxGeometry x="500" y="1990" width="100" height="40" as="geometry" />
        </mxCell>
        <mxCell id="hfd_dL3A9iqUe7PELF8y-314" value="" style="endArrow=none;html=1;rounded=0;entryX=1;entryY=0.5;entryDx=0;entryDy=0;exitX=0;exitY=0.5;exitDx=0;exitDy=0;" parent="1" source="hfd_dL3A9iqUe7PELF8y-313" target="hfd_dL3A9iqUe7PELF8y-279" edge="1">
          <mxGeometry relative="1" as="geometry">
            <mxPoint x="510" y="1960" as="sourcePoint" />
            <mxPoint x="438" y="1990" as="targetPoint" />
          </mxGeometry>
        </mxCell>
        <mxCell id="hfd_dL3A9iqUe7PELF8y-315" value="current_value" style="ellipse;whiteSpace=wrap;html=1;align=center;" parent="1" vertex="1">
          <mxGeometry x="400" y="270" width="100" height="40" as="geometry" />
        </mxCell>
        <mxCell id="hfd_dL3A9iqUe7PELF8y-316" value="" style="endArrow=none;html=1;rounded=0;exitX=0.5;exitY=1;exitDx=0;exitDy=0;entryX=0.5;entryY=0;entryDx=0;entryDy=0;" parent="1" source="hfd_dL3A9iqUe7PELF8y-315" target="hfd_dL3A9iqUe7PELF8y-101" edge="1">
          <mxGeometry relative="1" as="geometry">
            <mxPoint x="330" y="120" as="sourcePoint" />
            <mxPoint x="405" y="175" as="targetPoint" />
          </mxGeometry>
        </mxCell>
        <mxCell id="hfd_dL3A9iqUe7PELF8y-317" value="duration" style="ellipse;whiteSpace=wrap;html=1;align=center;" parent="1" vertex="1">
          <mxGeometry x="718" y="610" width="100" height="40" as="geometry" />
        </mxCell>
        <mxCell id="hfd_dL3A9iqUe7PELF8y-318" value="" style="endArrow=none;html=1;rounded=0;entryX=0;entryY=0.5;entryDx=0;entryDy=0;exitX=0.75;exitY=1;exitDx=0;exitDy=0;" parent="1" source="hfd_dL3A9iqUe7PELF8y-77" target="hfd_dL3A9iqUe7PELF8y-317" edge="1">
          <mxGeometry relative="1" as="geometry">
            <mxPoint x="708" y="560" as="sourcePoint" />
            <mxPoint x="728" y="585" as="targetPoint" />
          </mxGeometry>
        </mxCell>
      </root>
    </mxGraphModel>
  </diagram>
</mxfile>
